<?xml version="1.0" encoding="UTF-8"?>
<svg id="Layer_2" data-name="Layer 2" xmlns="http://www.w3.org/2000/svg" viewBox="0 0 75.04 69.83">
  <defs>
    <style>
      .cls-1, .cls-2, .cls-3, .cls-4 {
        stroke-width: 0px;
      }

      .cls-1, .cls-4 {
        fill: #be9449;
      }

      .cls-2, .cls-3 {
        fill: #faf8f3;
      }

      .cls-3, .cls-4 {
        fill-rule: evenodd;
      }
    </style>
  </defs>
  <g id="Layer_1-2" data-name="Layer 1">
    <g>
      <g>
        <polygon class="cls-3" points="44.63 42.16 39.91 42.16 35.13 42.16 35.13 46.88 39.91 46.88 44.63 46.88 49.35 46.88 53.96 46.88 53.96 42.16 49.35 42.16 44.63 42.16"/>
        <rect class="cls-2" x="63.29" y="18.77" width="4.72" height="4.61"/>
        <rect class="cls-2" x="70.32" y="18.77" width="4.72" height="4.61"/>
        <rect class="cls-2" y="18.77" width="4.72" height="4.61"/>
        <rect class="cls-2" x="7.03" y="18.77" width="4.72" height="4.61"/>
        <polygon class="cls-4" points="35.13 32.83 39.91 32.83 39.91 28.11 39.91 23.38 44.63 23.38 44.63 14.05 46.93 14.05 46.93 9.33 43.48 9.33 38.7 9.33 38.7 14.05 38.7 18.77 36.39 18.77 36.39 14.05 36.39 9.33 31.67 9.33 28.11 9.33 28.11 14.05 30.52 14.05 30.52 23.38 35.13 23.38 35.13 28.11 35.13 32.83"/>
        <polygon class="cls-4" points="51.65 23.38 53.96 23.38 53.96 18.77 53.96 14.05 53.96 9.33 49.35 9.33 49.35 14.05 49.35 16.36 46.93 16.36 46.93 18.77 46.93 23.38 49.35 23.38 51.65 23.38"/>
        <polygon class="cls-4" points="25.8 23.38 28.11 23.38 28.11 18.77 28.11 16.36 25.8 16.36 25.8 14.05 25.8 9.33 21.08 9.33 21.08 14.05 21.08 18.77 21.08 23.38 23.38 23.38 25.8 23.38"/>
        <polygon class="cls-4" points="31.67 7.03 35.13 7.03 36.39 7.03 38.7 7.03 39.91 7.03 43.48 7.03 49.35 7.03 53.96 7.03 53.96 4.61 53.96 2.31 53.96 0 49.35 0 49.35 2.31 43.48 2.31 39.91 2.31 39.91 0 35.13 0 35.13 2.31 31.67 2.31 25.8 2.31 25.8 0 21.08 0 21.08 2.31 21.08 4.61 21.08 7.03 25.8 7.03 31.67 7.03"/>
        <path class="cls-3" d="m70.32,35.13h-2.31v-4.61h2.31v4.61Zm-44.52,0v-4.61h2.31v4.61h-2.31Zm42.21-9.33h-4.72v14.05h7.03v2.31h-9.33v-16.36h-4.72v9.33h-2.31v-9.33h-4.72v9.33h-2.31v-9.33h-4.67v9.33h-9.44v-9.33h-11.75v14.05h7.03v2.31h-7.03v4.72h11.75v-7.03h23.44v7.03h18.77v-21.08h-7.03Z"/>
        <polygon class="cls-3" points="13.94 30.52 13.94 35.13 13.94 39.85 13.94 42.16 11.75 42.16 7.03 42.16 4.72 42.16 2.31 42.16 0 42.16 0 46.88 2.31 46.88 4.72 46.88 7.03 46.88 11.75 46.88 13.94 46.88 16.47 46.88 18.66 46.88 18.66 44.57 18.66 42.16 18.66 39.85 18.66 35.13 18.66 30.52 18.66 25.8 13.94 25.8 13.94 30.52"/>
        <path class="cls-3" d="m7.03,30.52v4.61h-2.31v-4.61h2.31Zm-2.31,9.33h7.03v-14.05H0v14.05h4.72Z"/>
        <path class="cls-4" d="m4.1,58.19c1.05,0,1.89-.94,1.89-2.41,0-2.09-1.05-3.56-2.52-3.56-1.16,0-2,1.05-2,2.51,0,2.09,1.05,3.46,2.63,3.46Zm-.32-6.7c2.21,0,3.68,1.47,3.68,3.77,0,1.68-.84,2.93-2.1,3.46.74.31,1.68,1.36,2.31,1.36.42,0,.74,0,.95-.1v.21h-.11c-.42.21-1.16.42-1.89.42-.63,0-1.68-1.05-2.63-1.68-.11,0-.21.1-.32.1-2.21,0-3.68-1.57-3.68-3.77s1.47-3.77,3.78-3.77Z"/>
        <path class="cls-4" d="m13.01,56.01h1.88l-.94-2.42c-.31.95-.63,1.68-.94,2.42Zm2.93,2.94v-.21c0-.11-.21-.42-.21-.42l-.52-1.47h-2.51c-.31.63-.42,1.16-.52,1.47l-.21.42v.11h-1.15l.1-.11.1-.42c.42-.95,1.26-3.05,2.41-5.88.1-.32.21-.53.42-.84h.63l.21.42s1.99,4.83,2.62,6.41l.1.32c.1.11.1.21.1.21h-1.57Z"/>
        <path class="cls-4" d="m20.86,57.13h.21c.21.21.42.31.64.52.53.31,1.06.52,1.59.52s.96-.42.96-1.04c0-.52-.53-1.04-1.49-1.46-1.17-.63-1.7-1.25-1.7-2.09,0-1.25.96-2.09,2.33-2.09.85,0,1.59.21,1.8.42l.11,1.15h-.21c-.11,0-.21,0-.21-.1l-.32-.1c-.32-.31-.85-.63-1.38-.63-.42,0-.74.31-.74.84s.42.94,1.27,1.46c1.27.52,1.91,1.25,1.91,2.19,0,1.36-.96,2.3-2.33,2.3-1.06,0-2.12-.21-2.44-.52v-1.36Z"/>
        <path class="cls-4" d="m28.65,51.59h1.47v.21l1.05,4.84c.63-1.68,1.36-3.36,1.99-5.15h.63c.52,1.79,1.05,3.47,1.57,5.15l1.47-4.84v-.21h1.15v.21l-.1.21-2.31,6.94h-.63c-.52-1.68-1.05-3.36-1.68-4.94-.63,1.58-1.36,3.26-1.99,4.94h-.63c-.31-.95-1.99-6.94-1.99-7.36Z"/>
        <path class="cls-4" d="m42.93,56.01h1.88l-.94-2.42c-.31.95-.63,1.68-.94,2.42Zm2.93,2.94v-.21c0-.11-.21-.42-.21-.42l-.52-1.47h-2.51c-.31.63-.42,1.16-.52,1.47l-.21.42v.11h-1.15l.1-.11.1-.42c.42-.95,1.26-3.05,2.41-5.88.1-.32.21-.53.42-.84h.63l.21.42s1.99,4.83,2.62,6.41l.1.32c.1.11.1.21.1.21h-1.57Z"/>
        <path class="cls-4" d="m56.27,58.64h.11-.11Zm-3.91-3.78c.74,0,1.59-.42,1.59-1.16s-.42-1.16-1.16-1.16h-.53v2.31h.11Zm-.11,3.47v.63h-1.48v-7.36h2.33c1.48,0,2.43.84,2.43,2,0,.84-.74,1.58-1.48,1.89.85,1.05,2.43,3.26,2.43,3.47h-1.8c0-.21-2.33-3.26-2.33-3.26h-.11v2.63Z"/>
        <path class="cls-4" d="m61.28,56.01h1.79l-.84-2.42c-.42.95-.74,1.68-.95,2.42Zm2.95,2.94c0-.11,0-.21-.11-.21,0-.11-.11-.42-.11-.42l-.63-1.47h-2.53c-.21.63-.32,1.16-.53,1.47l-.11.42v.11h-1.16l.11-.11.11-.42c.42-.95,1.27-3.05,2.43-5.88.11-.32.21-.53.32-.84h.74l.21.42s1.9,4.83,2.64,6.41l.11.32c0,.11.11.21,0,.21h-1.48Z"/>
        <polygon class="cls-4" points="73.56 54.62 73.56 52.2 73.56 51.82 73.56 51.6 75.04 51.6 75.04 51.82 75.04 52.2 75.04 58.3 75.04 58.63 75.04 58.85 73.56 58.85 73.56 58.63 73.56 58.3 73.56 55.55 70.65 55.55 70.65 58.3 70.65 58.63 70.65 58.85 69.17 58.85 69.17 58.63 69.17 58.3 69.17 52.2 69.17 51.82 69.17 51.6 70.65 51.6 70.65 51.82 70.65 52.2 70.65 54.62 73.56 54.62"/>
      </g>
      <g>
        <path class="cls-1" d="m2.52,67.98c-.89,0-1.54-.18-1.94-.53-.39-.34-.58-.86-.58-1.56,0-.45.08-.85.24-1.19l.7-.12c-.18.37-.27.78-.27,1.24,0,.57.13.98.4,1.23.3.27.81.41,1.53.41h.61v-2.79c.42-.09.86-.14,1.32-.14.58,0,1,.14,1.25.42.23.25.35.64.35,1.16v1.02h-.65v-.93c0-.41-.08-.7-.24-.87-.16-.18-.42-.26-.78-.26-.2,0-.4.02-.6.06v2.88h-1.34Zm-.38,1.34c-.07.08-.16.12-.27.12-.11,0-.2-.04-.27-.11-.07-.07-.11-.17-.11-.28,0-.1.04-.19.11-.27s.17-.11.27-.11.19.04.27.11c.07.07.11.16.11.27s-.04.2-.11.27Zm1.06,0c-.07.08-.16.12-.26.12-.11,0-.2-.04-.28-.11-.07-.08-.11-.17-.11-.28s.04-.19.11-.27c.08-.08.17-.11.28-.11s.19.04.26.11c.07.07.11.16.11.27s-.04.2-.11.27Z"/>
        <path class="cls-1" d="m6.4,69.73l.07-.55c.22.08.46.12.73.12.32,0,.55-.09.7-.26.17-.19.26-.52.26-.97v-3.48h.66v3.42c0,1.21-.56,1.81-1.67,1.81-.25,0-.5-.03-.75-.1Z"/>
        <path class="cls-1" d="m10.12,62.92h.66v4.54h.79v.53h-1.45v-5.07Z"/>
        <path class="cls-1" d="m11.47,67.46h.42c.16,0,.33,0,.51.02-.32-.23-.47-.63-.47-1.2,0-.5.16-.92.47-1.25.32-.34.75-.51,1.27-.51.49,0,.87.13,1.14.38.3.29.46.71.46,1.28s-.19,1.02-.56,1.29c.24-.02.45-.02.62-.02h.5v.53h-4.36v-.53Zm2.83-.29c.2-.22.3-.53.3-.93,0-.79-.33-1.19-.99-1.19-.28,0-.52.09-.7.28-.21.21-.32.51-.32.9,0,.82.34,1.23,1.01,1.23.29,0,.52-.1.7-.29Zm-1.47-3.33c-.08-.08-.11-.17-.11-.28,0-.1.04-.19.11-.27.07-.07.16-.11.27-.11s.19.04.27.11c.07.08.11.17.11.27s-.04.2-.11.28c-.07.07-.16.11-.27.11s-.2-.04-.27-.11Zm1.06,0c-.08-.08-.12-.17-.12-.28,0-.1.04-.19.12-.27.07-.07.17-.11.27-.11s.19.04.26.11c.07.08.11.17.11.27s-.04.2-.11.28-.16.11-.26.11-.2-.04-.27-.11Z"/>
        <path class="cls-1" d="m15.71,67.46h.24c.76,0,1.42-.12,1.96-.37-.75-.7-1.32-1.12-1.73-1.25l.06-.46c.76-.58,1.45-.86,2.07-.86.46,0,.82.11,1.06.34.22.2.33.46.33.78,0,.55-.29,1.04-.86,1.49.33.23.68.34,1.04.34h.44v.53h-.53c-.52,0-1.01-.18-1.46-.53-.68.36-1.49.53-2.44.53h-.18v-.53Zm2.71-.68c.42-.31.62-.67.62-1.06,0-.21-.06-.37-.19-.5-.14-.14-.34-.21-.61-.21-.38,0-.84.19-1.39.58.26.1.78.5,1.56,1.19Z"/>
        <path class="cls-1" d="m20.21,67.46h1.01v-4.54h.66v5.07h-1.67v-.53Z"/>
        <path class="cls-1" d="m23.24,62.92h.66v5.07h-.66v-5.07Z"/>
        <path class="cls-1" d="m25.9,69.73l.07-.55c.22.08.46.12.73.12.32,0,.55-.09.7-.26.17-.19.26-.52.26-.97v-3.48h.66v3.42c0,1.21-.56,1.81-1.67,1.81-.25,0-.5-.03-.75-.1Z"/>
        <path class="cls-1" d="m29.61,67.98v-5.07h.66v4.54h.55c.29,0,.5-.08.64-.23.16-.18.25-.5.25-.95,0-.5.15-.91.45-1.23.33-.35.78-.53,1.35-.53,1.03,0,1.54.54,1.54,1.61v1.32h.72v.53h-2.07c-.84,0-1.39-.23-1.66-.68-.12.42-.44.64-.97.67h0s-1.45,0-1.45,0Zm4.79-1.73c0-.8-.32-1.2-.95-1.2-.33,0-.6.11-.79.33-.19.21-.29.5-.29.86,0,.81.44,1.21,1.31,1.21h.71v-1.21Z"/>
        <path class="cls-1" d="m35.66,67.46h1.05v-2.85h.66v2.85h.8v.53h-2.51v-.53Zm.46-3.62c-.08-.08-.11-.17-.11-.28,0-.1.04-.19.11-.27.07-.07.16-.11.27-.11s.2.04.27.11c.07.07.11.16.11.27s-.04.2-.11.28-.16.11-.27.11-.2-.04-.27-.11Zm.54-.85c-.07-.07-.11-.16-.11-.26s.04-.19.11-.27c.07-.07.16-.11.26-.11s.19.04.26.11c.07.07.11.16.11.27s-.04.19-.11.26c-.07.07-.16.11-.26.11s-.19-.04-.26-.11Zm.52.85c-.08-.08-.11-.17-.11-.28,0-.1.04-.19.11-.27.07-.07.16-.11.27-.11s.2.04.27.11c.07.08.11.17.11.27s-.04.2-.11.28c-.07.07-.17.11-.27.11s-.2-.04-.27-.11Z"/>
        <path class="cls-1" d="m38.06,67.46h1.05v-2.85h.66v2.85h.74v.53h-2.45v-.53Zm.46-3.62c-.08-.08-.11-.17-.11-.28,0-.1.04-.19.11-.27.07-.07.16-.11.27-.11s.19.04.27.11.11.17.11.27-.04.2-.11.28c-.07.07-.16.11-.27.11s-.2-.04-.27-.11Zm1.06,0c-.08-.08-.12-.17-.12-.28,0-.1.04-.19.12-.27.07-.07.17-.11.27-.11s.19.04.27.11c.07.08.11.17.11.27s-.04.2-.11.28c-.07.07-.16.11-.27.11s-.2-.04-.27-.11Z"/>
        <path class="cls-1" d="m40.4,67.46h.31c.27,0,.45-.07.56-.21.12-.15.18-.41.18-.78v-1.44h.66v1.31c0,.43.03.72.09.86.08.2.25.31.52.31.49,0,.74-.39.74-1.16v-1.6h.64v1.84c0,.37.08.61.23.72.14.1.41.15.82.15h.24c.04-.33.06-.66.06-1,0-.72-.08-1.38-.24-1.98l.64-.12c.17.62.26,1.3.26,2.04,0,.54-.04,1.07-.12,1.58h-.82c-.46,0-.79-.04-1-.12-.22-.08-.38-.23-.48-.46-.16.42-.52.62-1.09.62-.51,0-.82-.21-.93-.62-.14.38-.46.57-.96.57h-.31v-.53Z"/>
        <path class="cls-1" d="m48.31,66.81h-.67l-1.14-3.85.66-.09,1.15,3.94Zm-1.5,1.17v-.53h2.22v-4.54h.67v4.54h.79v.53h-3.68Z"/>
        <path class="cls-1" d="m50.38,67.46h1.01v-4.54h.66v5.07h-1.67v-.53Z"/>
        <path class="cls-1" d="m56.34,67.98c-1.26,0-1.89-.56-1.89-1.67,0-.51.15-.93.45-1.25.33-.35.77-.53,1.34-.53,1.02,0,1.54.54,1.54,1.61v1.85h-1.45Zm.8-1.73c0-.8-.32-1.2-.95-1.2-.33,0-.59.11-.79.33-.19.21-.29.5-.29.86,0,.81.44,1.21,1.31,1.21h.71v-1.21Zm-1.74-2.42c-.07-.08-.11-.17-.11-.28,0-.1.04-.19.11-.27.07-.07.16-.11.27-.11s.2.04.27.11c.07.08.11.17.11.27s-.04.2-.11.28c-.08.07-.17.11-.27.11s-.2-.04-.27-.11Zm1.06,0c-.08-.08-.11-.17-.11-.28,0-.1.04-.19.11-.27.07-.07.17-.11.27-.11s.19.04.27.11c.07.08.11.17.11.27s-.04.2-.11.28c-.07.07-.16.11-.27.11s-.2-.04-.27-.11Z"/>
        <path class="cls-1" d="m57.7,69.73l.07-.55c.22.08.46.12.73.12.32,0,.55-.09.7-.26.17-.19.26-.52.26-.97v-3.48h.66v3.42c0,1.21-.56,1.81-1.67,1.81-.25,0-.5-.03-.75-.1Z"/>
        <path class="cls-1" d="m60.99,69.69l.05-.55c.4.09.79.14,1.15.14.91,0,1.37-.37,1.37-1.12v-.17h-.72c-1.26,0-1.89-.56-1.89-1.67,0-.51.15-.92.45-1.25.33-.36.78-.53,1.37-.53.53,0,1.01.08,1.45.25v2.68h.79v.53h-.79v.14c0,.47-.16.86-.47,1.15-.37.35-.91.53-1.63.53-.37,0-.74-.04-1.12-.11Zm2.57-4.48c-.23-.11-.52-.17-.87-.17s-.6.11-.79.33c-.19.21-.29.5-.29.86,0,.81.44,1.22,1.31,1.22h.63v-2.24Z"/>
        <path class="cls-1" d="m64.89,67.46h.31c.27,0,.45-.07.56-.21.12-.15.18-.41.18-.78v-1.44h.66v1.31c0,.43.03.72.09.86.08.2.25.31.52.31.49,0,.74-.39.74-1.16v-1.6h.64v1.84c0,.37.08.61.23.72.14.1.41.15.82.15h.24c.04-.33.06-.66.06-1,0-.72-.08-1.38-.24-1.98l.64-.12c.17.62.26,1.3.26,2.04,0,.29-.02.65-.05,1.06h.79v.53h-1.67c-.46,0-.79-.04-1-.12-.22-.08-.38-.23-.48-.46-.16.42-.52.62-1.09.62-.51,0-.82-.21-.93-.62-.14.38-.46.57-.96.57h-.31v-.53Z"/>
        <path class="cls-1" d="m71.23,67.98v-.53h.57c.17,0,.31.01.42.04-.36-.22-.53-.63-.53-1.21,0-.5.15-.91.45-1.23.32-.35.77-.53,1.34-.53,1.02,0,1.54.54,1.54,1.61v1.85h-3.79Zm3.14-1.73c0-.8-.32-1.2-.95-1.2-.33,0-.59.11-.79.33-.19.21-.29.5-.29.86,0,.81.44,1.21,1.31,1.21h.71v-1.21Zm-1.77-2.42c-.07-.08-.11-.17-.11-.28,0-.1.04-.19.11-.27.07-.07.16-.11.27-.11s.19.04.27.11c.07.08.11.17.11.27s-.04.2-.11.28c-.08.07-.17.11-.27.11s-.2-.04-.27-.11Zm1.06,0c-.08-.08-.11-.17-.11-.28,0-.1.04-.19.11-.27.07-.07.17-.11.27-.11s.19.04.27.11c.07.08.11.17.11.27s-.04.2-.11.28c-.07.07-.16.11-.27.11s-.2-.04-.27-.11Z"/>
      </g>
    </g>
  </g>
</svg>